<svg xmlns="http://www.w3.org/2000/svg" viewBox="0 0 820 360" width="820" height="360">
  <!-- Terminal window background -->
  <rect width="820" height="360" rx="12" fill="#0d1117"/>

  <!-- Title bar -->
  <rect width="820" height="38" rx="12" fill="#161b22"/>
  <rect y="26" width="820" height="12" fill="#161b22"/>

  <!-- Traffic lights -->
  <circle cx="24" cy="19" r="6" fill="#ff5f57"/>
  <circle cx="46" cy="19" r="6" fill="#febc2e"/>
  <circle cx="68" cy="19" r="6" fill="#28c840"/>

  <!-- Window title -->
  <text x="410" y="24" text-anchor="middle"
        font-family="'Courier New', Courier, monospace" font-size="12" fill="#6e7681">
    devogee@github — neofetch
  </text>

  <!-- Shell prompt line -->
  <text font-family="'Courier New', Courier, monospace" font-size="13" y="58">
    <tspan x="20" fill="#28c840">devogee@github</tspan>
    <tspan fill="#6e7681">:</tspan>
    <tspan fill="#58a6ff">~</tspan>
    <tspan fill="#6e7681">$ </tspan>
    <tspan fill="#f0f6fc">neofetch</tspan>
  </text>

  <!-- LEFT: ASCII Art "G" for Godfrey -->
  <text font-family="'Courier New', Courier, monospace" font-size="13" fill="#10FF10">
    <tspan x="20" y="88">  ██████╗  </tspan>
    <tspan x="20" dy="19"> ██╔════╝  </tspan>
    <tspan x="20" dy="19"> ██║  ███╗ </tspan>
    <tspan x="20" dy="19"> ██║   ██║ </tspan>
    <tspan x="20" dy="19"> ╚██████╔╝ </tspan>
    <tspan x="20" dy="19">  ╚═════╝  </tspan>
  </text>

  <!-- DevOGee label -->
  <text x="30" y="230" font-family="'Courier New', Courier, monospace" font-size="11" fill="#6e7681" letter-spacing="3">DevOGee</text>

  <!-- Color palette row 1 - bright -->
  <rect x="20"  y="245" width="14" height="11" rx="2" fill="#ff5f57"/>
  <rect x="37"  y="245" width="14" height="11" rx="2" fill="#febc2e"/>
  <rect x="54"  y="245" width="14" height="11" rx="2" fill="#28c840"/>
  <rect x="71"  y="245" width="14" height="11" rx="2" fill="#58a6ff"/>
  <rect x="88"  y="245" width="14" height="11" rx="2" fill="#bc8cff"/>
  <rect x="105" y="245" width="14" height="11" rx="2" fill="#ff79c6"/>
  <rect x="122" y="245" width="14" height="11" rx="2" fill="#10FF10"/>
  <rect x="139" y="245" width="14" height="11" rx="2" fill="#f0f6fc"/>
  <!-- Color palette row 2 - dark -->
  <rect x="20"  y="259" width="14" height="11" rx="2" fill="#5a0000"/>
  <rect x="37"  y="259" width="14" height="11" rx="2" fill="#5a3c00"/>
  <rect x="54"  y="259" width="14" height="11" rx="2" fill="#003d00"/>
  <rect x="71"  y="259" width="14" height="11" rx="2" fill="#003355"/>
  <rect x="88"  y="259" width="14" height="11" rx="2" fill="#250055"/>
  <rect x="105" y="259" width="14" height="11" rx="2" fill="#550022"/>
  <rect x="122" y="259" width="14" height="11" rx="2" fill="#002a00"/>
  <rect x="139" y="259" width="14" height="11" rx="2" fill="#2a2a2a"/>

  <!-- RIGHT: Info panel - Username -->
  <text x="220" y="88" font-family="'Courier New', Courier, monospace" font-size="14" font-weight="bold">
    <tspan fill="#10FF10">devogee</tspan><tspan fill="#6e7681">@</tspan><tspan fill="#10FF10">github</tspan>
  </text>

  <!-- Separator line -->
  <line x1="220" y1="98" x2="805" y2="98" stroke="#21262d" stroke-width="1.5"/>

  <!-- Info rows -->
  <text x="220" y="117"  font-family="'Courier New', Courier, monospace" font-size="12.5"><tspan fill="#58a6ff">OS:         </tspan><tspan fill="#f0f6fc">Ubuntu Server 22.04 LTS</tspan></text>
  <text x="220" y="136"  font-family="'Courier New', Courier, monospace" font-size="12.5"><tspan fill="#58a6ff">Host:       </tspan><tspan fill="#f0f6fc">wabwirelab</tspan></text>
  <text x="220" y="155"  font-family="'Courier New', Courier, monospace" font-size="12.5"><tspan fill="#58a6ff">Role:       </tspan><tspan fill="#f0f6fc">ICT LMS Administrator</tspan></text>
  <text x="220" y="174"  font-family="'Courier New', Courier, monospace" font-size="12.5"><tspan fill="#58a6ff">Shell:      </tspan><tspan fill="#f0f6fc">bash 5.1 + zsh</tspan></text>
  <text x="220" y="193"  font-family="'Courier New', Courier, monospace" font-size="12.5"><tspan fill="#58a6ff">Lang:       </tspan><tspan fill="#f0f6fc">PHP · Python · JS · SQL</tspan></text>
  <text x="220" y="212"  font-family="'Courier New', Courier, monospace" font-size="12.5"><tspan fill="#58a6ff">LMS:        </tspan><tspan fill="#f0f6fc">Moodle Expert &amp; Developer</tspan></text>
  <text x="220" y="231"  font-family="'Courier New', Courier, monospace" font-size="12.5"><tspan fill="#58a6ff">Research:   </tspan><tspan fill="#f0f6fc">STACK · Learning Analytics</tspan></text>
  <text x="220" y="250"  font-family="'Courier New', Courier, monospace" font-size="12.5"><tspan fill="#58a6ff">Published:  </tspan><tspan fill="#febc2e">IEEE · ACM Conference Venues</tspan></text>
  <text x="220" y="269"  font-family="'Courier New', Courier, monospace" font-size="12.5"><tspan fill="#58a6ff">AI/ML:      </tspan><tspan fill="#f0f6fc">IBM AI Practitioner · HCIA-AI</tspan></text>
  <text x="220" y="288"  font-family="'Courier New', Courier, monospace" font-size="12.5"><tspan fill="#58a6ff">Memory:     </tspan><tspan fill="#bc8cff">Infinite Curiosity</tspan></text>
  <text x="220" y="307"  font-family="'Courier New', Courier, monospace" font-size="12.5"><tspan fill="#58a6ff">Uptime:     </tspan><tspan fill="#28c840">Always Learning ∞</tspan></text>

  <!-- Bottom separator -->
  <line x1="220" y1="319" x2="805" y2="319" stroke="#21262d" stroke-width="1.5"/>

  <!-- Bottom color palette row 1 -->
  <rect x="220" y="330" width="14" height="11" rx="2" fill="#ff5f57"/>
  <rect x="237" y="330" width="14" height="11" rx="2" fill="#febc2e"/>
  <rect x="254" y="330" width="14" height="11" rx="2" fill="#28c840"/>
  <rect x="271" y="330" width="14" height="11" rx="2" fill="#58a6ff"/>
  <rect x="288" y="330" width="14" height="11" rx="2" fill="#bc8cff"/>
  <rect x="305" y="330" width="14" height="11" rx="2" fill="#ff79c6"/>
  <rect x="322" y="330" width="14" height="11" rx="2" fill="#10FF10"/>
  <rect x="339" y="330" width="14" height="11" rx="2" fill="#f0f6fc"/>
  <!-- Bottom color palette row 2 -->
  <rect x="220" y="344" width="14" height="11" rx="2" fill="#5a0000"/>
  <rect x="237" y="344" width="14" height="11" rx="2" fill="#5a3c00"/>
  <rect x="254" y="344" width="14" height="11" rx="2" fill="#003d00"/>
  <rect x="271" y="344" width="14" height="11" rx="2" fill="#003355"/>
  <rect x="288" y="344" width="14" height="11" rx="2" fill="#250055"/>
  <rect x="305" y="344" width="14" height="11" rx="2" fill="#550022"/>
  <rect x="322" y="344" width="14" height="11" rx="2" fill="#002a00"/>
  <rect x="339" y="344" width="14" height="11" rx="2" fill="#2a2a2a"/>
</svg>
